mtllib tet.mtl

#
# object Plane001
#

v  -40.0000 0.0000 20.0000
v  -40.0000 0.0000 40.0000
v  -20.0000 0.0000 20.0000
v  -20.0000 0.0000 40.0000
v  0.0000 0.0000 20.0000
v  0.0000 0.0000 40.0000
v  20.0000 0.0000 20.0000
v  20.0000 0.0000 40.0000
v  40.0000 0.0000 20.0000
v  40.0000 0.0000 40.0000
v  -40.0000 0.0000 -0.0000
v  -20.0000 0.0000 -0.0000
v  0.0000 0.0000 -0.0000
v  20.0000 0.0000 -0.0000
v  40.0000 0.0000 -0.0000
v  -40.0000 0.0000 -20.0000
v  -20.0000 0.0000 -20.0000
v  0.0000 0.0000 -20.0000
v  20.0000 0.0000 -20.0000
v  40.0000 0.0000 -20.0000
v  -40.0000 0.0000 -40.0000
v  -20.0000 0.0000 -40.0000
v  0.0000 0.0000 -40.0000
v  20.0000 0.0000 -40.0000
v  40.0000 0.0000 -40.0000
# 25 vertices

vn 0.0000 1.0000 -0.0000
# 1 vertex normals

g Plane001
usemtl wire_028149177
s 1
f 1//1 2//1 3//1 
f 4//1 3//1 2//1 
f 3//1 4//1 5//1 
f 6//1 5//1 4//1 
f 5//1 6//1 7//1 
f 8//1 7//1 6//1 
f 7//1 8//1 9//1 
f 10//1 9//1 8//1 
f 11//1 1//1 12//1 
f 3//1 12//1 1//1 
f 12//1 3//1 13//1 
f 5//1 13//1 3//1 
f 13//1 5//1 14//1 
f 7//1 14//1 5//1 
f 14//1 7//1 15//1 
f 9//1 15//1 7//1 
f 16//1 11//1 17//1 
f 12//1 17//1 11//1 
f 17//1 12//1 18//1 
f 13//1 18//1 12//1 
f 18//1 13//1 19//1 
f 14//1 19//1 13//1 
f 19//1 14//1 20//1 
f 15//1 20//1 14//1 
f 21//1 16//1 22//1 
f 17//1 22//1 16//1 
f 22//1 17//1 23//1 
f 18//1 23//1 17//1 
f 23//1 18//1 24//1 
f 19//1 24//1 18//1 
f 24//1 19//1 25//1 
f 20//1 25//1 19//1 
# 32 faces

#
# object Box001
#

v  0.7167 0.0000 -0.7113
v  0.7167 0.0000 -1.8707
v  1.7355 0.0000 -1.8707
v  1.7355 0.0000 -0.7113
v  0.7167 1.0679 -0.7113
v  1.7355 1.0679 -0.7113
v  1.7355 1.0679 -1.8707
v  0.7167 1.0679 -1.8707
# 8 vertices

vn 0.0000 -1.0000 -0.0000
vn 0.0000 1.0000 -0.0000
vn 0.0000 0.0000 1.0000
vn 1.0000 0.0000 -0.0000
vn 0.0000 0.0000 -1.0000
vn -1.0000 0.0000 -0.0000
# 6 vertex normals

g Box001
usemtl wire_214228153
s 2
f 26//2 27//2 28//2 
f 28//2 29//2 26//2 
s 4
f 30//3 31//3 32//3 
f 32//3 33//3 30//3 
s 8
f 26//4 29//4 31//4 
f 31//4 30//4 26//4 
s 16
f 29//5 28//5 32//5 
f 32//5 31//5 29//5 
s 32
f 28//6 27//6 33//6 
f 33//6 32//6 28//6 
s 64
f 27//7 26//7 30//7 
f 30//7 33//7 27//7 
# 12 faces

#
# object Box002
#

v  -1.1810 0.0000 -0.2343
v  -3.6250 0.0000 -0.3113
v  -3.5987 0.0000 -1.1451
v  -1.1548 0.0000 -1.0681
v  -1.1810 0.9641 -0.2343
v  -1.1548 0.9641 -1.0681
v  -3.5987 0.9641 -1.1451
v  -3.6250 0.9641 -0.3113
# 8 vertices

vn 0.0000 -1.0000 -0.0000
vn 0.0000 1.0000 -0.0000
vn 0.9995 0.0000 0.0315
vn 0.0315 0.0000 -0.9995
vn -0.9995 0.0000 -0.0315
vn -0.0315 0.0000 0.9995
# 6 vertex normals

g Box002
usemtl wire_166229229
s 2
f 34//8 35//8 36//8 
f 36//8 37//8 34//8 
s 4
f 38//9 39//9 40//9 
f 40//9 41//9 38//9 
s 8
f 34//10 37//10 39//10 
f 39//10 38//10 34//10 
s 16
f 37//11 36//11 40//11 
f 40//11 39//11 37//11 
s 32
f 36//12 35//12 41//12 
f 41//12 40//12 36//12 
s 64
f 35//13 34//13 38//13 
f 38//13 41//13 35//13 
# 12 faces

#
# object Box003
#

v  1.1297 0.0000 3.8680
v  0.6055 0.0000 3.2785
v  2.7343 0.0000 1.3857
v  3.2585 0.0000 1.9753
v  1.1297 1.8250 3.8680
v  3.2585 1.8250 1.9753
v  2.7343 1.8250 1.3857
v  0.6055 1.8250 3.2785
# 8 vertices

vn 0.0000 -1.0000 -0.0000
vn 0.0000 1.0000 -0.0000
vn 0.6645 0.0000 0.7473
vn 0.7473 0.0000 -0.6645
vn -0.6645 0.0000 -0.7473
vn -0.7473 0.0000 0.6645
# 6 vertex normals

g Box003
usemtl wire_148177027
s 2
f 42//14 43//14 44//14 
f 44//14 45//14 42//14 
s 4
f 46//15 47//15 48//15 
f 48//15 49//15 46//15 
s 8
f 42//16 45//16 47//16 
f 47//16 46//16 42//16 
s 16
f 45//17 44//17 48//17 
f 48//17 47//17 45//17 
s 32
f 44//18 43//18 49//18 
f 49//18 48//18 44//18 
s 64
f 43//19 42//19 46//19 
f 46//19 49//19 43//19 
# 12 faces

#
# object Box004
#

v  -7.0909 0.0000 3.6492
v  -6.8511 0.0000 3.3442
v  -5.8907 0.0000 4.0992
v  -6.1304 0.0000 4.4042
v  -4.2095 0.0000 5.9141
v  -3.9698 0.0000 5.6091
v  -3.0093 0.0000 6.3641
v  -3.2491 0.0000 6.6691
v  -6.6114 0.0000 3.0392
v  -5.6509 0.0000 3.7942
v  -3.7301 0.0000 5.3041
v  -2.7696 0.0000 6.0591
v  -6.3717 0.0000 2.7342
v  -5.4112 0.0000 3.4892
v  -3.4903 0.0000 4.9991
v  -2.5299 0.0000 5.7541
v  -6.1319 0.0000 2.4293
v  -5.1715 0.0000 3.1842
v  -3.2506 0.0000 4.6941
v  -2.2901 0.0000 5.4491
v  -7.0909 3.9166 3.6492
v  -6.1304 3.9166 4.4042
v  -5.8907 3.9166 4.0992
v  -6.8511 3.9166 3.3442
v  -5.1700 3.9166 5.1591
v  -4.9302 3.9166 4.8541
v  -4.2095 3.9166 5.9141
v  -3.9698 3.9166 5.6091
v  -3.2491 3.9166 6.6691
v  -3.0093 3.9166 6.3641
v  -5.6509 3.9166 3.7942
v  -6.6114 3.9166 3.0392
v  -4.6905 3.9166 4.5492
v  -3.7301 3.9166 5.3041
v  -2.7696 3.9166 6.0591
v  -5.4112 3.9166 3.4892
v  -6.3717 3.9166 2.7342
v  -4.4508 3.9166 4.2442
v  -3.4903 3.9166 4.9991
v  -2.5299 3.9166 5.7541
v  -5.1715 3.9166 3.1842
v  -6.1319 3.9166 2.4293
v  -4.2110 3.9166 3.9392
v  -3.2506 3.9166 4.6941
v  -2.2901 3.9166 5.4491
v  -6.1304 0.9792 4.4042
v  -7.0909 0.9792 3.6492
v  -3.2491 0.9792 6.6691
v  -4.2095 0.9792 5.9141
v  -6.1304 1.9583 4.4042
v  -7.0909 1.9583 3.6492
v  -3.2491 1.9583 6.6691
v  -4.2095 1.9583 5.9141
v  -6.1304 2.9375 4.4042
v  -7.0909 2.9375 3.6492
v  -3.2491 2.9375 6.6691
v  -4.2095 2.9375 5.9141
v  -5.1700 2.9375 5.1591
v  -3.0093 0.9792 6.3641
v  -2.7696 0.9792 6.0591
v  -2.5299 0.9792 5.7541
v  -2.2901 0.9792 5.4491
v  -3.0093 1.9583 6.3641
v  -2.7696 1.9583 6.0591
v  -2.5299 1.9583 5.7541
v  -2.2901 1.9583 5.4491
v  -3.0093 2.9375 6.3641
v  -2.7696 2.9375 6.0591
v  -2.5299 2.9375 5.7541
v  -2.2901 2.9375 5.4491
v  -3.2506 0.9792 4.6941
v  -6.1319 0.9792 2.4293
v  -5.1715 0.9792 3.1842
v  -3.2506 1.9583 4.6941
v  -6.1319 1.9583 2.4293
v  -5.1715 1.9583 3.1842
v  -3.2506 2.9375 4.6941
v  -6.1319 2.9375 2.4293
v  -5.1715 2.9375 3.1842
v  -4.2110 2.9375 3.9392
v  -6.3717 0.9792 2.7342
v  -6.6114 0.9792 3.0392
v  -6.8511 0.9792 3.3442
v  -6.3717 1.9583 2.7342
v  -6.6114 1.9583 3.0392
v  -6.8511 1.9583 3.3442
v  -6.3717 2.9375 2.7342
v  -6.6114 2.9375 3.0392
v  -6.8511 2.9375 3.3442
# 89 vertices

vn 0.0000 -1.0000 -0.0000
vn 0.0000 1.0000 -0.0000
vn -0.6180 0.0000 0.7862
vn 0.7862 0.0000 0.6180
vn 0.6180 0.0000 -0.7862
vn -0.7862 0.0000 -0.6180
# 6 vertex normals

g Box004
usemtl wire_028149177
s 2
f 50//20 51//20 52//20 
f 52//20 53//20 50//20 
f 54//20 55//20 56//20 
f 56//20 57//20 54//20 
f 51//20 58//20 59//20 
f 59//20 52//20 51//20 
f 55//20 60//20 61//20 
f 61//20 56//20 55//20 
f 58//20 62//20 63//20 
f 63//20 59//20 58//20 
f 60//20 64//20 65//20 
f 65//20 61//20 60//20 
f 62//20 66//20 67//20 
f 67//20 63//20 62//20 
f 64//20 68//20 69//20 
f 69//20 65//20 64//20 
s 4
f 70//21 71//21 72//21 
f 72//21 73//21 70//21 
f 71//21 74//21 75//21 
f 75//21 72//21 71//21 
f 74//21 76//21 77//21 
f 77//21 75//21 74//21 
f 76//21 78//21 79//21 
f 79//21 77//21 76//21 
f 73//21 72//21 80//21 
f 80//21 81//21 73//21 
f 72//21 75//21 82//21 
f 82//21 80//21 72//21 
f 75//21 77//21 83//21 
f 83//21 82//21 75//21 
f 77//21 79//21 84//21 
f 84//21 83//21 77//21 
f 81//21 80//21 85//21 
f 85//21 86//21 81//21 
f 80//21 82//21 87//21 
f 87//21 85//21 80//21 
f 82//21 83//21 88//21 
f 88//21 87//21 82//21 
f 83//21 84//21 89//21 
f 89//21 88//21 83//21 
f 86//21 85//21 90//21 
f 90//21 91//21 86//21 
f 85//21 87//21 92//21 
f 92//21 90//21 85//21 
f 87//21 88//21 93//21 
f 93//21 92//21 87//21 
f 88//21 89//21 94//21 
f 94//21 93//21 88//21 
s 8
f 50//22 53//22 95//22 
f 95//22 96//22 50//22 
f 54//22 57//22 97//22 
f 97//22 98//22 54//22 
f 96//22 95//22 99//22 
f 99//22 100//22 96//22 
f 98//22 97//22 101//22 
f 101//22 102//22 98//22 
f 100//22 99//22 103//22 
f 103//22 104//22 100//22 
f 102//22 101//22 105//22 
f 105//22 106//22 102//22 
f 104//22 103//22 71//22 
f 71//22 70//22 104//22 
f 103//22 107//22 74//22 
f 74//22 71//22 103//22 
f 107//22 106//22 76//22 
f 76//22 74//22 107//22 
f 106//22 105//22 78//22 
f 78//22 76//22 106//22 
s 16
f 57//23 56//23 108//23 
f 108//23 97//23 57//23 
f 56//23 61//23 109//23 
f 109//23 108//23 56//23 
f 61//23 65//23 110//23 
f 110//23 109//23 61//23 
f 65//23 69//23 111//23 
f 111//23 110//23 65//23 
f 97//23 108//23 112//23 
f 112//23 101//23 97//23 
f 108//23 109//23 113//23 
f 113//23 112//23 108//23 
f 109//23 110//23 114//23 
f 114//23 113//23 109//23 
f 110//23 111//23 115//23 
f 115//23 114//23 110//23 
f 101//23 112//23 116//23 
f 116//23 105//23 101//23 
f 112//23 113//23 117//23 
f 117//23 116//23 112//23 
f 113//23 114//23 118//23 
f 118//23 117//23 113//23 
f 114//23 115//23 119//23 
f 119//23 118//23 114//23 
f 105//23 116//23 79//23 
f 79//23 78//23 105//23 
f 116//23 117//23 84//23 
f 84//23 79//23 116//23 
f 117//23 118//23 89//23 
f 89//23 84//23 117//23 
f 118//23 119//23 94//23 
f 94//23 89//23 118//23 
s 32
f 69//24 68//24 120//24 
f 120//24 111//24 69//24 
f 67//24 66//24 121//24 
f 121//24 122//24 67//24 
f 111//24 120//24 123//24 
f 123//24 115//24 111//24 
f 122//24 121//24 124//24 
f 124//24 125//24 122//24 
f 115//24 123//24 126//24 
f 126//24 119//24 115//24 
f 125//24 124//24 127//24 
f 127//24 128//24 125//24 
f 119//24 126//24 93//24 
f 93//24 94//24 119//24 
f 126//24 129//24 92//24 
f 92//24 93//24 126//24 
f 129//24 128//24 90//24 
f 90//24 92//24 129//24 
f 128//24 127//24 91//24 
f 91//24 90//24 128//24 
s 64
f 66//25 62//25 130//25 
f 130//25 121//25 66//25 
f 62//25 58//25 131//25 
f 131//25 130//25 62//25 
f 58//25 51//25 132//25 
f 132//25 131//25 58//25 
f 51//25 50//25 96//25 
f 96//25 132//25 51//25 
f 121//25 130//25 133//25 
f 133//25 124//25 121//25 
f 130//25 131//25 134//25 
f 134//25 133//25 130//25 
f 131//25 132//25 135//25 
f 135//25 134//25 131//25 
f 132//25 96//25 100//25 
f 100//25 135//25 132//25 
f 124//25 133//25 136//25 
f 136//25 127//25 124//25 
f 133//25 134//25 137//25 
f 137//25 136//25 133//25 
f 134//25 135//25 138//25 
f 138//25 137//25 134//25 
f 135//25 100//25 104//25 
f 104//25 138//25 135//25 
f 127//25 136//25 86//25 
f 86//25 91//25 127//25 
f 136//25 137//25 81//25 
f 81//25 86//25 136//25 
f 137//25 138//25 73//25 
f 73//25 81//25 137//25 
f 138//25 104//25 70//25 
f 70//25 73//25 138//25 
s off
f 106//25 126//25 123//25 
f 123//25 102//25 106//25 
f 102//25 123//25 120//25 
f 120//25 98//25 102//25 
f 98//25 120//25 68//25 
f 68//25 54//25 98//25 
f 107//20 129//20 126//20 
f 126//20 106//20 107//20 
f 103//20 128//20 129//20 
f 129//20 107//20 103//20 
f 99//23 125//23 128//23 
f 128//23 103//23 99//23 
f 95//23 122//23 125//23 
f 125//23 99//23 95//23 
f 53//23 67//23 122//23 
f 122//23 95//23 53//23 
# 168 faces

