# 3ds Max Wavefront OBJ Exporter v0.97b - (c)2007 guruware
# File Created: 23.03.2017 16:49:38

mtllib tet.mtl

#
# object Plane001
#

v  -35.3871 -1.2383 23.3652
v  -35.3871 -1.2383 41.6652
v  -16.3634 -1.2383 23.3652
v  -16.3634 -1.2383 41.6652
v  2.6604 -1.2383 23.3652
v  2.6604 -1.2383 41.6652
v  21.6841 -1.2383 23.3652
v  21.6841 -1.2383 41.6652
v  40.7078 -1.2383 23.3652
v  40.7078 -1.2383 41.6652
v  -35.3871 -1.2383 5.0652
v  -16.3634 -1.2383 5.0652
v  2.6604 -1.2383 5.0652
v  21.6841 -1.2383 5.0652
v  40.7078 -1.2383 5.0652
v  -35.3871 -1.2383 -13.2349
v  -16.3634 -1.2383 -13.2349
v  2.6604 -1.2383 -13.2349
v  21.6841 -1.2383 -13.2349
v  40.7078 -1.2383 -13.2349
v  -35.3871 -1.2383 -31.5349
v  -16.3634 -1.2383 -31.5349
v  2.6604 -1.2383 -31.5349
v  21.6841 -1.2383 -31.5349
v  40.7078 -1.2383 -31.5349
# 25 vertices

vn 0.0000 1.0000 -0.0000
# 1 vertex normals

g Plane001
usemtl wire_006135058
s 1
f 1//1 2//1 3//1 
f 4//1 3//1 2//1 
f 3//1 4//1 5//1 
f 6//1 5//1 4//1 
f 5//1 6//1 7//1 
f 8//1 7//1 6//1 
f 7//1 8//1 9//1 
f 10//1 9//1 8//1 
f 11//1 1//1 12//1 
f 3//1 12//1 1//1 
f 12//1 3//1 13//1 
f 5//1 13//1 3//1 
f 13//1 5//1 14//1 
f 7//1 14//1 5//1 
f 14//1 7//1 15//1 
f 9//1 15//1 7//1 
f 16//1 11//1 17//1 
f 12//1 17//1 11//1 
f 17//1 12//1 18//1 
f 13//1 18//1 12//1 
f 18//1 13//1 19//1 
f 14//1 19//1 13//1 
f 19//1 14//1 20//1 
f 15//1 20//1 14//1 
f 21//1 16//1 22//1 
f 17//1 22//1 16//1 
f 22//1 17//1 23//1 
f 18//1 23//1 17//1 
f 23//1 18//1 24//1 
f 19//1 24//1 18//1 
f 24//1 19//1 25//1 
f 20//1 25//1 19//1 
# 32 faces

#
# object Box001
#

v  -13.8485 -0.7330 24.8721
v  -13.8485 -0.7330 19.7930
v  -6.9789 -0.7330 19.7930
v  -6.9789 -0.7330 24.8721
v  -13.8485 6.4283 24.8721
v  -6.9789 6.4283 24.8721
v  -6.9789 6.4283 19.7930
v  -13.8485 6.4283 19.7930
# 8 vertices

vn 0.0000 -1.0000 -0.0000
vn 0.0000 1.0000 -0.0000
vn 0.0000 0.0000 1.0000
vn 1.0000 0.0000 -0.0000
vn 0.0000 0.0000 -1.0000
vn -1.0000 0.0000 -0.0000
# 6 vertex normals

g Box001
usemtl wire_153228153
s 2
f 26//2 27//2 28//2 
f 28//2 29//2 26//2 
s 4
f 30//3 31//3 32//3 
f 32//3 33//3 30//3 
s 8
f 26//4 29//4 31//4 
f 31//4 30//4 26//4 
s 16
f 29//5 28//5 32//5 
f 32//5 31//5 29//5 
s 32
f 28//6 27//6 33//6 
f 33//6 32//6 28//6 
s 64
f 27//7 26//7 30//7 
f 30//7 33//7 27//7 
# 12 faces

#
# object Box002
#

v  -20.3297 -0.7330 8.5235
v  -20.3297 -0.7330 -1.9025
v  -15.0548 -0.7330 -1.9025
v  -15.0548 -0.7330 8.5235
v  -20.3297 4.6401 8.5235
v  -15.0548 4.6401 8.5235
v  -15.0548 4.6401 -1.9025
v  -20.3297 4.6401 -1.9025
# 8 vertices

vn 0.0000 -1.0000 -0.0000
vn 0.0000 1.0000 -0.0000
vn 0.0000 0.0000 1.0000
vn 1.0000 0.0000 -0.0000
vn 0.0000 0.0000 -1.0000
vn -1.0000 0.0000 -0.0000
# 6 vertex normals

g Box002
usemtl wire_141007058
s 2
f 34//8 35//8 36//8 
f 36//8 37//8 34//8 
s 4
f 38//9 39//9 40//9 
f 40//9 41//9 38//9 
s 8
f 34//10 37//10 39//10 
f 39//10 38//10 34//10 
s 16
f 37//11 36//11 40//11 
f 40//11 39//11 37//11 
s 32
f 36//12 35//12 41//12 
f 41//12 40//12 36//12 
s 64
f 35//13 34//13 38//13 
f 38//13 41//13 35//13 
# 12 faces

#
# object Box003
#

v  -5.6885 -0.7330 -8.9885
v  -5.6885 -0.7330 -14.4288
v  5.5876 -0.7330 -14.4288
v  5.5876 -0.7330 -8.9885
v  -5.6885 4.5736 -8.9885
v  5.5876 4.5736 -8.9885
v  5.5876 4.5736 -14.4288
v  -5.6885 4.5736 -14.4288
# 8 vertices

vn 0.0000 -1.0000 -0.0000
vn 0.0000 1.0000 -0.0000
vn 0.0000 0.0000 1.0000
vn 1.0000 0.0000 -0.0000
vn 0.0000 0.0000 -1.0000
vn -1.0000 0.0000 -0.0000
# 6 vertex normals

g Box003
usemtl wire_141007058
s 2
f 42//14 43//14 44//14 
f 44//14 45//14 42//14 
s 4
f 46//15 47//15 48//15 
f 48//15 49//15 46//15 
s 8
f 42//16 45//16 47//16 
f 47//16 46//16 42//16 
s 16
f 45//17 44//17 48//17 
f 48//17 47//17 45//17 
s 32
f 44//18 43//18 49//18 
f 49//18 48//18 44//18 
s 64
f 43//19 42//19 46//19 
f 46//19 49//19 43//19 
# 12 faces

#
# object Box004
#

v  14.5424 -0.7330 10.7783
v  14.5424 -0.7330 6.0267
v  31.0824 -0.7330 6.0267
v  31.0824 -0.7330 10.7783
v  14.5424 6.4256 10.7783
v  31.0824 6.4256 10.7783
v  31.0824 6.4256 6.0267
v  14.5424 6.4256 6.0267
# 8 vertices

vn 0.0000 -1.0000 -0.0000
vn 0.0000 1.0000 -0.0000
vn 0.0000 0.0000 1.0000
vn 1.0000 0.0000 -0.0000
vn 0.0000 0.0000 -1.0000
vn -1.0000 0.0000 -0.0000
# 6 vertex normals

g Box004
usemtl wire_177088027
s 2
f 50//20 51//20 52//20 
f 52//20 53//20 50//20 
s 4
f 54//21 55//21 56//21 
f 56//21 57//21 54//21 
s 8
f 50//22 53//22 55//22 
f 55//22 54//22 50//22 
s 16
f 53//23 52//23 56//23 
f 56//23 55//23 53//23 
s 32
f 52//24 51//24 57//24 
f 57//24 56//24 52//24 
s 64
f 51//25 50//25 54//25 
f 54//25 57//25 51//25 
# 12 faces

